<svg t="1640852700354" class="icon" viewBox="0 0 1024 1024" version="1.1" xmlns="http://www.w3.org/2000/svg" p-id="6752" width="64" height="64"><path d="M780.671 934.491v6.96h-16.303v26.79h21.355v6.96h-21.355v38.706h-7.627V975.2h-25.646c-1.048 18.781-5.91 27.171-20.878 40.423l-5.435-5.339c14.015-11.917 18.02-19.258 18.877-35.084H701.35v-6.96h22.5v-26.789h-17.543v-6.96h74.364z m42.613-6.864c1.145 3.242 2.67 9.82 3.719 14.777h14.777v6.959h-24.597a280.873 280.873 0 0 0-0.146 3.942l-0.025 0.808c-0.087 2.953-0.149 5.744-0.21 6.977 0 0.668 0 1.24-0.096 1.907h19.449c0 0.19 0 0.572-0.095 0.953 8.008-11.058 13.347-24.692 15.635-36.132l7.341 1.239a136.732 136.732 0 0 1-4.481 14.205h28.506v7.055h-8.104c-1.62 15.73-4.957 27.648-11.25 37.753 5.435 7.342 12.681 14.015 21.737 20.212l-4.958 6.006c-8.484-6.101-15.444-12.87-20.973-20.306-5.53 7.15-12.871 13.538-22.405 20.116l-5.148-5.434c10.392-6.865 17.924-13.443 23.357-20.88-4.766-7.817-8.103-16.397-9.915-25.74a72.879 72.879 0 0 1-4.576 6.96l-4.766-3.72-1.622 32.797c-0.38 8.676-2.955 10.583-11.821 11.345l-4.48 0.382-2.288-6.865 6.386-0.476c5.149-0.382 5.625-2.288 6.007-6.77 0.134-1.567 0.395-6.73 0.643-12.073l0.048-1.035c0.262-5.696 0.5-11.345 0.548-12.823h-12.965c-1.144 21.832-4.767 29.65-13.538 43.95l-6.388-3.718c10.011-14.491 12.775-22.881 13.442-49.861 0.074-0.88 0.203-4.242 0.26-7.7l0.01-0.693c0.01-0.807 0.016-1.611 0.016-2.381h-9.247v-6.96h18.972c-0.953-4.956-2.384-10.867-3.432-13.727z m-610.516 47.668v38.707h-7.341v-4.385H162.43v4.576h-7.341v-38.898h57.679z m268.935-47.192l6.006 0.192v15.444h13.062v37.372h-13.062v19.162c3.337-0.285 6.579-0.572 9.344-0.953-1.335-4.576-2.765-9.056-4.005-11.917l5.625-1.811c2.478 6.101 6.483 19.067 7.436 25.836l-5.625 2.574c-0.38-2.479-1.048-5.529-1.906-8.771-3.75 0.422-8.857 0.955-14.082 1.46l-1.653 0.158c-6.062 0.575-12.106 1.093-16.203 1.337l-0.573-6.482c3.91-0.096 9.725-0.477 15.636-0.954v-19.639h-13.252v-37.372h13.252v-15.636z m108.873 48.717v36.515h-7.341v-4.958h-43.759v4.958h-7.341V976.82h58.441z m-127.082-7.816v35.084c0 6.196-1.907 7.912-8.676 8.58l-3.623 0.38-1.62-5.72 3.908-0.381c3.337-0.286 4.29-1.334 4.29-5.338v-26.981h-28.315v37.754h-5.72v-43.378h39.756z m-13.443 7.626l4.577 1.908c-1.335 3.24-3.337 7.34-5.245 10.773h6.102v5.433h-8.962v16.112h-5.529v-16.111h-8.866v-5.434h11.917c2.192-3.72 4.671-9.058 6.006-12.68z m-137.182-9.82v23.55h-30.126c2.86 2.668 6.864 7.245 8.771 9.913l-4.67 4.1c-2.099-3.528-6.867-9.249-9.345-11.727l2.67-2.286h-32.606v-4.673h58.824v-4.861h-55.773v-4.768h55.773v-4.576h-57.584v-4.671h64.066z m-107.442 28.411H162.43v8.485h42.997v-8.485z m377.809-12.012h-43.76v18.495h43.76v-18.495z m96.612-34.52l1.007 0.501-23.487 46.975-1.007-0.503 23.487-46.974z m-285.756 0l1.007 0.501-23.488 46.975-1.005-0.503 23.486-46.974zM205.427 981.11H162.43v8.294h42.997v-8.294z m231.85-4.767c1.43 2.193 4.193 7.056 5.338 9.629l-4.195 2.67c-1.049-2.86-3.623-7.723-5.148-10.01z m430.72-26.027H851.6l-1.43 2.956c1.334 10.677 4.385 19.925 9.247 28.315 4.768-8.676 7.341-18.686 8.58-31.271z m-711.383-23.643l5.816 2.097c-0.763 2.193-1.812 4.576-3.051 6.96h25.646v5.72h-14.492c0 2.478-0.095 5.91-0.19 7.245 0 0.763-0.096 1.525-0.096 2.192h16.875v5.531h-17.637c-0.095 0.667-0.191 1.24-0.381 1.811 5.624 2.86 13.823 7.532 17.827 10.487l-3.432 5.625c-4.48-3.623-11.25-8.2-16.493-11.059-3.527 6.482-10.392 10.678-22.118 15.73l-3.051-5.91c12.489-4.29 18.686-9.057 20.974-16.684h-19.45v-5.53h20.499c0-0.572 0.095-1.239 0.095-1.81 0.095-1.622 0.095-5.15 0.19-7.628h-7.912c-1.812 2.86-3.718 5.72-5.816 8.39l-5.053-3.814c5.053-6.1 9.057-13.728 11.25-19.353z m325.089 23.167h-7.341v25.169h7.341v-25.169z m13.062 0h-7.056v25.169h7.056v-25.169z m-274.276-14.778v34.226h-30.03v-34.226h30.03z m536.252 6.388h-25.359v26.79h25.36v-26.79z m-192.002-12.49c10.393 15.35 26.694 24.693 40.995 31.272l-3.909 7.15c-19.066-9.152-32.224-20.402-40.613-31.461-8.77 12.012-23.453 22.88-40.614 31.365l-3.909-7.15c20.498-9.343 33.273-19.735 41.091-31.175z m-267.505-0.095l6.102 0.19v6.293h16.493v4.767h-16.493v5.625h14.776v4.576h-14.776v5.625h18.686v4.862h-18.686v4.385h-6.102v-4.385h-14.3v-4.862h14.3v-5.625h-13.157v-4.576h13.157v-5.625H283.22v-4.767h14.014v-6.483z m-36.895 0.096l6.292 0.19v6.197h13.156v4.767H266.63v5.625h12.394v4.576H266.63v5.625h13.538v4.862H266.63v4.385h-6.292v-4.385h-19.163v-4.862h19.163v-5.625H245.37v-4.576h14.968v-5.625h-16.78v-4.767h16.78v-6.387z m323.659 29.077v6.674h-45.476v-6.674h45.476z m-124.317-12.68v18.02h-32.129v-18.02h32.129z m-245.674-3.908h-17.16v21.546h17.16v-21.546z m239.857 9.343h-20.497v7.15h20.497v-7.15z m11.25-17.542v5.721h-43.95v-5.721h43.95z m-91.647-202.933c1.374 0 2.613 0.828 3.137 2.097l26.319 63.576c1.134 2.74 4.991 2.81 6.224 0.112l29.142-63.8a3.393 3.393 0 0 1 3.088-1.985h22.395c2.475 0 4.117 2.562 3.086 4.81l-69.63 151.846a3.398 3.398 0 0 1-3.086 1.98h-22.59c-2.484 0-4.127-2.58-3.076-4.83l20.998-44.976a3.394 3.394 0 0 0 0.065-2.726l-41.662-101.419c-0.918-2.234 0.726-4.685 3.14-4.685z m144.947-44.836a3.396 3.396 0 0 1 3.395 3.395v46.714c0 2.824 3.252 4.411 5.469 2.663 3.682-2.903 7.552-5.228 11.611-6.975 6.12-2.632 12.667-3.949 19.642-3.949 15.159 0 28.039 5.73 38.645 17.187 10.603 11.46 15.906 26.155 15.906 44.088 0 17.295-5.48 31.76-16.44 43.396-10.96 11.635-23.949 17.454-38.965 17.454-6.69 0-12.917-1.194-18.682-3.576-3.917-1.62-7.819-3.938-11.704-6.956-2.232-1.735-5.482-0.17-5.482 2.658v1.491a3.395 3.395 0 0 1-3.395 3.393h-22.142a3.393 3.393 0 0 1-3.394-3.393V688.878a3.394 3.394 0 0 1 3.394-3.395z m374.467 0a3.393 3.393 0 0 1 3.394 3.395v154.195a3.394 3.394 0 0 1-3.394 3.394h-22.355a3.394 3.394 0 0 1-3.394-3.394v-1.482c0-2.83-3.254-4.394-5.488-2.654-3.868 3.01-7.743 5.326-11.626 6.943-5.723 2.383-11.925 3.576-18.607 3.576-14.999 0-27.972-5.818-38.92-17.454-10.946-11.636-16.419-26.1-16.419-43.395 0-17.934 5.296-32.63 15.888-44.088 10.592-11.457 23.457-17.188 38.6-17.188 6.965 0 13.503 1.318 19.617 3.949 4.024 1.736 7.85 4.039 11.473 6.914 2.218 1.76 5.482 0.178 5.482-2.652v-46.664a3.393 3.393 0 0 1 3.394-3.394z m-204.578 41.848c2.812 0 5.724 0.555 8.735 1.662 1.75 0.645 2.652 2.605 2.018 4.36l-6.75 18.665c-0.653 1.8-2.652 2.642-4.442 1.965-2.009-0.759-3.749-1.138-5.22-1.138-4.483 0-8.272 2.775-11.369 8.326-3.095 5.551-4.643 16.44-4.643 32.667l0.107 5.657v43.578a3.395 3.395 0 0 1-3.394 3.394h-22.142a3.394 3.394 0 0 1-3.394-3.394V733.714a3.395 3.395 0 0 1 3.394-3.395h18.191a3.396 3.396 0 0 1 3.395 3.395c0 3.13 3.806 4.528 5.936 2.238a27.207 27.207 0 0 1 4.846-4.138c4.484-2.989 9.394-4.483 14.732-4.483zM238.1 685.491a6.121 6.121 0 0 1 6.12 6.121v50.947a6.122 6.122 0 0 0 6.123 6.122h40.172a6.122 6.122 0 0 0 6.122-6.122v-50.947a6.121 6.121 0 0 1 6.12-6.122h17.969a6.122 6.122 0 0 1 6.122 6.122v148.732a6.123 6.123 0 0 1-6.122 6.123h-17.968a6.122 6.122 0 0 1-6.121-6.123v-56.61a6.122 6.122 0 0 0-6.122-6.123h-40.172a6.122 6.122 0 0 0-6.122 6.122v56.611a6.122 6.122 0 0 1-6.121 6.123h-18.075a6.122 6.122 0 0 1-6.121-6.123V691.612a6.121 6.121 0 0 1 6.12-6.122z m510.17 43.1c1.874 0 3.394 1.543 3.394 3.445v110.987c0 1.902-1.52 3.444-3.395 3.444h-22.355c-1.874 0-3.394-1.542-3.394-3.444V732.036c0-1.902 1.52-3.445 3.394-3.445z m-595.452 0c1.875 0 3.395 1.542 3.395 3.445v110.986c0 1.902-1.52 3.444-3.395 3.444h-22.354c-1.875 0-3.395-1.542-3.395-3.444V732.036c0-1.903 1.52-3.446 3.395-3.446z m399.629 25.641c-9.18 0-16.797 3.132-22.844 9.395-6.05 6.264-9.075 14.448-9.075 24.553 0 10.321 3.025 18.664 9.075 25.034 8.249 8.69 19.414 11.45 33.489 8.29 0.326-0.074 0.655-0.195 0.95-0.35 13.336-7.054 20.004-18.013 20.004-32.868 0-9.96-2.989-18.128-8.967-24.499-5.978-6.369-13.522-9.555-22.632-9.555z m284.05 0c-9.01 0-16.492 3.186-22.45 9.555-5.958 6.37-8.938 14.538-8.938 24.499 0 14.856 6.643 25.815 19.937 32.867 0.297 0.157 0.626 0.279 0.953 0.352 14.027 3.156 25.15 0.397 33.371-8.291 6.028-6.37 9.044-14.713 9.044-25.033 0-10.106-3.016-18.29-9.044-24.554-6.028-6.263-13.653-9.394-22.873-9.394z m-694.979-68.985l0.385 0.004c3.825 0.095 7.12 1.543 9.883 4.34 2.861 2.898 4.291 6.407 4.291 10.527 0 4.068-1.416 7.535-4.249 10.402-2.833 2.87-6.22 4.303-10.163 4.303-4.055 0-7.514-1.46-10.374-4.386-2.86-2.925-4.29-6.475-4.29-10.653 0-3.845 1.302-7.152 3.905-9.922 2.815-2.994 6.89-4.713 10.997-4.61z m595.766 0l0.385 0.004c3.826 0.096 7.12 1.543 9.884 4.34 2.86 2.898 4.29 6.407 4.29 10.527 0 4.069-1.415 7.535-4.248 10.403-2.834 2.869-6.221 4.302-10.164 4.302-4.055 0-7.513-1.461-10.374-4.385-2.86-2.925-4.29-6.476-4.29-10.654 0-3.844 1.302-7.152 3.906-9.922 2.814-2.994 6.889-4.712 10.996-4.611zM690.947 9c11.281 0 21.73 3.139 30.74 8.617 19.144 11.267 31.827 32.544 31.827 56.453v422.85c0 35.33-28.642 63.973-63.972 63.973s-63.974-28.643-63.974-63.973V261.269c-53.685 35.15-127.733 65.496-223.409 65.496-0.238 0-0.48-0.008-0.719-0.008V496.92c0 35.334-28.639 63.973-63.974 63.973-35.334 0-63.973-28.64-63.973-63.973V258.179a64.54 64.54 0 0 1 0.328-6.983 63.542 63.542 0 0 1 3.64-15.716c0.088-0.243 0.19-0.48 0.282-0.72a62.52 62.52 0 0 1 0.858-2.15c0.2-0.468 0.417-0.925 0.627-1.387 0.215-0.47 0.421-0.945 0.646-1.41 0.29-0.6 0.6-1.184 0.908-1.771 0.167-0.32 0.325-0.642 0.497-0.96 0.357-0.654 0.735-1.296 1.114-1.936 0.143-0.242 0.28-0.487 0.424-0.726 0.4-0.656 0.82-1.298 1.242-1.937 0.145-0.22 0.282-0.443 0.43-0.66 0.416-0.613 0.85-1.211 1.285-1.807 0.175-0.24 0.343-0.484 0.522-0.721 0.404-0.538 0.824-1.061 1.245-1.585 0.231-0.288 0.456-0.581 0.692-0.865 0.368-0.444 0.751-0.873 1.131-1.306 0.31-0.354 0.616-0.712 0.934-1.06 0.31-0.335 0.63-0.662 0.946-0.991 0.411-0.43 0.82-0.86 1.242-1.278 0.23-0.226 0.467-0.443 0.698-0.666a66.65 66.65 0 0 1 1.603-1.498c0.134-0.12 0.272-0.234 0.407-0.354a63.4 63.4 0 0 1 1.998-1.696l0.082-0.065a63.745 63.745 0 0 1 24.492-12.266c0.26-0.065 0.522-0.117 0.781-0.18 0.726-0.173 1.453-0.348 2.19-0.497 0.78-0.16 1.57-0.292 2.36-0.421 0.222-0.037 0.441-0.083 0.664-0.117a63.855 63.855 0 0 1 16.18-0.407 64.32 64.32 0 0 1 3.432 0.44c4.18 0.643 8.332 1.198 12.465 1.694-0.057-0.014-0.115-0.03-0.172-0.043 43.73 5.267 84.801 2.394 122.865-8.56 0.155-0.045 0.31-0.088 0.466-0.132a273.08 273.08 0 0 0 5.221-1.576c0.332-0.103 0.666-0.205 0.998-0.31a270.98 270.98 0 0 0 4.77-1.56c0.47-0.156 0.938-0.313 1.406-0.473a263.9 263.9 0 0 0 6.123-2.18 274.523 274.523 0 0 0 9.922-3.89c0.73-0.302 1.457-0.61 2.184-0.92 1.206-0.511 2.41-1.03 3.61-1.56 0.794-0.351 1.585-0.711 2.376-1.07a265.384 265.384 0 0 0 3.394-1.562c0.851-0.4 1.7-0.813 2.547-1.223a246.606 246.606 0 0 0 3.188-1.556c0.91-0.454 1.813-0.922 2.72-1.387 0.994-0.511 1.99-1.018 2.98-1.541 0.972-0.514 1.938-1.045 2.904-1.571 0.918-0.5 1.84-0.994 2.753-1.504 1.055-0.59 2.103-1.2 3.153-1.804 0.82-0.473 1.644-0.938 2.462-1.42 1.204-0.71 2.4-1.442 3.596-2.173 0.658-0.401 1.32-0.79 1.974-1.197 1.85-1.15 3.69-2.321 5.521-3.52 40.681-26.592 63.598-56.858 68.77-64.128V74.07c0-13.144 4.104-25.495 11.072-35.826C648.511 19.98 668.675 9 690.947 9z m-353.48 0.432c1.023 0 2.038 0.032 3.05 0.078a68.281 68.281 0 0 1 4.721 0.38c0.607 0.07 1.213 0.144 1.816 0.23a73.61 73.61 0 0 1 2.352 0.383c31.697 5.643 55.768 33.32 55.768 66.636 0 37.394-30.313 67.707-67.707 67.707-37.393 0-67.706-30.313-67.706-67.707 0-2.337 0.118-4.647 0.35-6.922a67.263 67.263 0 0 1 3.758-16.357c8.733-23.852 30.5-41.42 56.676-44.078a68.533 68.533 0 0 1 6.922-0.35z" p-id="6753" fill="#0066cc"></path><path d="M304.766 995.507c3.433 3.433 9.248 11.536 11.917 16.589l4.958-4.672c-2.765-4.29-8.962-12.107-12.49-15.635l-4.385 3.718zM296.09 1004.277c-0.572 2.098-2.192 3.051-6.864 3.242-4.767 0.191-9.44 0.191-14.205 0-4.577-0.19-6.102-1.239-6.102-5.625v-8.866l-6.482-0.19v10.105c0 7.913 2.287 9.63 10.105 9.915 6.102 0.19 12.203 0.19 18.305 0 7.245-0.19 9.724-2.002 10.678-4.672 0.857-2.669 1.334-5.434 2.002-8.198l-6.102-2.384c-0.286 2.193-0.668 4.481-1.335 6.673M240.509 1008.854l5.148 3.909c3.813-4.48 7.436-10.678 11.249-17.16l-5.625-2.48c-2.478 4.863-6.864 11.345-10.772 15.73" p-id="6754" fill="#0066cc"></path></svg>