<?xml version="1.0" standalone="no"?><!DOCTYPE svg PUBLIC "-//W3C//DTD SVG 1.1//EN" "http://www.w3.org/Graphics/SVG/1.1/DTD/svg11.dtd"><svg t="1640768509535" class="icon" viewBox="0 0 1024 1024" version="1.1" xmlns="http://www.w3.org/2000/svg" p-id="7124" xmlns:xlink="http://www.w3.org/1999/xlink" width="32" height="32"><defs><style type="text/css"></style></defs><path d="M625.775586 484.886992c0 35.108101 28.46523 63.573331 63.576613 63.573331 35.108101 0 63.573331-28.46523 63.573332-63.573331V64.666287c0-23.614358-12.475077-44.616204-31.307486-55.867075-0.387282-0.236308-0.758154-0.49559-1.148718-0.725333-0.134564-0.078769-0.282256-0.14441-0.416821-0.22318A58.394255 58.394255 0 0 0 690.747071 0.000033c-22.025845 0-41.977435 10.807795-53.796101 28.799999-7.030154 10.318769-11.175384 22.692102-11.175384 35.866255v15.15323c-5.139692 7.220513-27.913845 37.300512-68.33887 63.727588a287.931068 287.931068 0 0 1-11.034256 6.849641c-1.319385 0.774564-2.661744 1.483487-3.987692 2.238359-2.409026 1.368615-4.811487 2.747077-7.253333 4.033641-1.650872 0.876308-3.331282 1.673846-4.998564 2.514051-2.143179 1.076513-4.279795 2.172718-6.445948 3.190154-1.851077 0.869744-3.72841 1.670564-5.602462 2.494359-2.005333 0.892718-4.010667 1.798564-6.038974 2.635487-2.011897 0.833641-4.046769 1.601641-6.075077 2.382769-1.916718 0.738462-3.826872 1.490051-5.759999 2.182564-2.149744 0.771282-4.319179 1.486769-6.491898 2.198974-1.837949 0.613744-3.679179 1.227487-5.530256 1.798564-2.284308 0.702359-4.59159 1.352205-6.898871 1.995487-1.762461 0.489026-3.524923 0.981333-5.300513 1.437539-2.41559 0.62359-4.854154 1.197949-7.302564 1.752615-1.683692 0.387282-3.373949 0.768-5.070769 1.115897a291.971273 291.971273 0 0 1-12.544 2.317129 285.548299 285.548299 0 0 1-12.691691 1.762461c-2.845538 0.328205-5.697641 0.630154-8.569436 0.87959-1.411282 0.124718-2.835692 0.226462-4.25682 0.328205-3.006359 0.219897-6.019282 0.410256-9.058462 0.54482-1.289846 0.052513-2.589538 0.085333-3.885948 0.124718-3.190154 0.098462-6.38359 0.164103-9.606564 0.170667-1.132308 0-2.277744-0.026256-3.410051-0.036103-3.403487-0.036103-6.813538-0.098462-10.253128-0.239589-0.918974-0.036103-1.844513-0.098462-2.760205-0.147693-3.675897-0.177231-7.361641-0.393846-11.076923-0.692512-0.587487-0.049231-1.178256-0.118154-1.765743-0.167385a372.634244 372.634244 0 0 1-12.242051-1.240615 401.867474 401.867474 0 0 1-12.389744-1.664c-0.498872-0.078769-0.997744-0.088615-1.496615-0.154257a63.85887 63.85887 0 0 0-6.721641-0.508718c-0.485744-0.013128-0.961641-0.075487-1.447384-0.075487-0.475897 0-0.938667 0.062359-1.408 0.072205a63.983588 63.983588 0 0 0-12.803282 1.575385c-0.971487 0.226462-1.929846 0.475897-2.881641 0.745026-1.099487 0.305231-2.189128 0.633436-3.265641 0.997743a65.086357 65.086357 0 0 0-5.825641 2.297436c-0.725333 0.328205-1.430974 0.676103-2.143179 1.030564-1.129026 0.564513-2.238359 1.145436-3.328 1.772308-0.682667 0.393846-1.352205 0.807385-2.018461 1.227487-1.046974 0.65641-2.070974 1.325949-3.078564 2.034871-0.685949 0.489026-1.352205 1.001026-2.018462 1.509744-0.918974 0.712205-1.828103 1.434256-2.701128 2.189128-0.702359 0.603897-1.381744 1.234051-2.061128 1.870769-0.774564 0.735179-1.549128 1.476923-2.28759 2.248205-0.705641 0.728615-1.375179 1.483487-2.044718 2.248205-0.65641 0.75159-1.302974 1.509744-1.923282 2.290872-0.662974 0.833641-1.29641 1.693538-1.916718 2.56-0.564513 0.794256-1.119179 1.585231-1.647589 2.402462-0.584205 0.899282-1.132308 1.818256-1.670564 2.747076a65.739485 65.739485 0 0 0-1.447385 2.625641 66.005331 66.005331 0 0 0-2.612513 5.756718c-0.354462 0.896-0.682667 1.805128-0.997743 2.724103a59.943383 59.943383 0 0 0-1.739487 6.029128c-0.275692 1.16841-0.521846 2.343385-0.728616 3.538051-0.085333 0.475897-0.216615 0.932103-0.292102 1.411282-0.075487 0.508718-0.088615 1.00759-0.154257 1.509743-0.141128 1.079795-0.249436 2.162872-0.331487 3.259077-0.098462 1.174974-0.154256 2.343385-0.180513 3.508513-0.009846 0.469333-0.068923 0.918974-0.068923 1.391589v237.745224c0 35.114666 28.458666 63.573331 63.576614 63.573331 35.114666 0 63.573331-28.458666 63.573331-63.573331V315.782587l0.715487 0.006564c95.087587 0 168.66461-30.168614 222.017634-65.102767v234.200608z" p-id="7125" fill="#ffffff"></path><path d="M273.424418 80.449671v0.009846c5.960205 31.05805 33.243896 54.541126 66.044716 54.541127 37.159383 0 67.282049-30.125948 67.282049-67.282049 0-24.474256-13.10523-45.830563-32.639999-57.606563a67.049023 67.049023 0 0 0-11.175384-5.39241 69.63528 69.63528 0 0 0-4.742564-1.598359 69.438357 69.438357 0 0 0-6.531282-1.535999 66.336818 66.336818 0 0 0-6.170256-0.853334 66.428716 66.428716 0 0 0-6.022564-0.298666c-11.618461 0-22.537845 2.940718-32.072204 8.119794a67.554459 67.554459 0 0 0-29.932307 32.971486 67.052306 67.052306 0 0 0-4.936205 19.311589 67.150767 67.150767 0 0 0-0.347897 6.87918 67.465844 67.465844 0 0 0 1.243897 12.734358M794.54194 937.540926v7.364923h-17.253743v28.347076h22.600204v7.364923h-22.600204v40.959998h-8.070564v-40.959998h-27.139281c-1.106051 19.876102-6.252307 28.750768-22.088205 42.774973l-5.753436-5.648411c14.834871-12.612923 19.068717-20.381538 19.974564-37.126562h-23.607794v-7.364923h23.811281V944.902567h-18.563281v-7.364923h78.690459z m45.101947-7.263179c1.207795 3.426461 2.822564 10.390974 3.931897 15.635691h15.635692v7.364923h-26.026666c-0.203487 4.437333-0.301949 10.390974-0.403692 12.409436 0 0.702359 0 1.31282-0.101744 2.015179h20.578461c0 0.200205 0 0.607179-0.098461 1.00759 8.477538-11.700512 14.122666-26.125127 16.548102-38.232614l7.762051 1.31282a145.506457 145.506457 0 0 1-4.739282 15.031795h30.16205v7.463384h-8.569435c-1.719795 16.646564-5.251282 29.259486-11.904 39.949127 5.750154 7.768615 13.417025 14.828307 23.000615 21.389127l-5.251282 6.354051c-8.973128-6.455795-16.344615-13.61723-22.19323-21.484307-5.848615 7.565128-13.61723 14.322871-23.702974 21.284102l-5.451487-5.753435c10.994871-7.259897 18.970256-14.221128 24.720409-22.088205a81.814972 81.814972 0 0 1-10.495999-27.241025 76.668715 76.668715 0 0 1-4.841026 7.361641l-5.04123-3.931897-1.719795 34.704409c-0.406974 9.179897-3.124513 11.195077-12.504615 12.005743l-4.745846 0.403693-2.418872-7.26318 6.761026-0.505436c5.444923-0.406974 5.943795-2.418872 6.347487-7.164717 0.14441-1.654154 0.420103-7.099077 0.682666-12.740923l0.105026-2.258051c0.256-5.628718 0.482462-10.975179 0.531692-12.438974h-13.722256c-1.214359 23.10564-5.044513 31.376409-14.322871 46.506665l-6.764308-3.931897c10.594461-15.337025 13.518769-24.214974 14.22441-52.765537 0.098462-1.207795 0.305231-6.859487 0.305231-11.398564h-9.787077v-7.364923h20.079589c-1.017436-5.244718-2.527179-11.500307-3.636512-14.52964zM193.555703 980.719591v40.956717h-7.768616v-4.637539H140.288012v4.841026H132.519397v-41.160204h61.036306z m284.603067-49.939691l6.354051 0.203488v16.341332h13.820718v39.548717h-13.820718v20.276512c3.531487-0.301949 6.961231-0.603897 9.888821-1.007589-1.414564-4.844308-2.92759-9.583589-4.237128-12.612923l5.950358-1.913436c2.622359 6.455795 6.859487 20.178051 7.873641 27.336204l-5.956923 2.724103a93.095382 93.095382 0 0 0-2.018461-9.281641c-8.973128 1.010872-25.321025 2.625641-33.795281 3.127795l-0.603898-6.859487c4.135384-0.098462 10.28923-0.502154 16.54482-1.00759v-20.781948h-14.024204v-39.548717h14.024204v-16.54482z m115.213125 51.55446v38.636307h-7.765333v-5.244718h-46.309742v5.244718h-7.765333v-38.636307h61.840408z m-134.482047-8.277333v37.126563c0 6.557538-2.018461 8.372513-9.179897 9.081436l-3.833436 0.403692-1.716513-6.052102 4.135385-0.403693c3.531487-0.305231 4.542359-1.411282 4.542358-5.651692v-28.550563h-29.965127v39.952409H416.820516v-45.90605h42.069332z m-212.775378 25.222564l6.866051 0.200205v9.386666c0 4.64082 1.608205 5.746872 6.455795 5.950359 5.044513 0.203487 9.987282 0.203487 15.031794 0 4.942769-0.203487 6.656-1.207795 7.263179-3.426462 0.705641-2.326974 1.109333-4.745846 1.411282-7.066256l6.455795 2.523898c-0.702359 2.92759-1.207795 5.851897-2.116923 8.677743-1.00759 2.822564-3.629949 4.742564-11.29682 4.939487a307.403477 307.403477 0 0 1-19.370666 0c-8.274051-0.298667-10.699487-2.113641-10.699487-10.492718v-10.68964z m-11.798974 0.30523l5.953641 2.625641c-4.036923 6.856205-7.870359 13.413743-11.904 18.156307l-5.448205-4.135384c4.135384-4.64082 8.776205-11.500307 11.398564-16.646564z m61.236511-1.411282c3.734974 3.72841 10.292512 12.002461 13.21682 16.541538l-5.241436 4.942769c-2.829128-5.343179-8.982974-13.922461-12.616204-17.552409z m149.113431-16.045948l4.841026 2.018462a117.346458 117.346458 0 0 1-5.546667 11.401845h6.455795v5.750154h-9.485128v17.050256h-5.851897v-17.050256h-9.380103v-5.750154h12.609641c2.32041-3.935179 4.939487-9.583589 6.357333-13.420307z m-145.178252-10.387692v24.917333h-31.878563c3.026051 2.825846 7.263179 7.666872 9.281641 10.492717l-4.946051 4.338872c-2.218667-3.731692-7.259897-9.787077-9.885538-12.409436l2.825846-2.422153H230.380317v-4.942769H292.627699v-5.146257H233.609855v-5.04123H292.627699v-4.844308H231.693137v-4.942769H299.487186z m-113.700099 30.063589H140.288012v8.979692h45.499075v-8.979692z m399.816193-12.711384h-46.30646v19.570871h46.30646v-19.570871z m-399.816193-2.218667H140.288012v8.776205h45.499075v-8.776205z m245.359582-5.044513c1.513026 2.32041 4.437333 7.466666 5.64841 10.190769l-4.440615 2.822564c-1.109333-3.026051-3.833436-8.172307-5.444923-10.591179z m455.811268-27.542973h-17.355487l-1.509743 3.127795c1.404718 11.29682 4.637538 21.083897 9.780512 29.965127 5.044513-9.183179 7.768615-19.774358 9.084718-33.092922zM134.134166 929.266875l6.153846 2.221948a56.326562 56.326562 0 0 1-3.229538 7.361641h27.142563v6.055385H148.864012c0 2.622359-0.101744 6.252307-0.203488 7.663589 0 0.807385-0.101744 1.614769-0.101743 2.323692h17.854358v5.851898H147.754678c-0.098462 0.702359-0.200205 1.31282-0.40041 1.916718 5.950359 3.026051 14.628102 7.96882 18.86523 11.093333l-3.63323 5.95364c-4.742564-3.833436-11.904-8.674461-17.453949-11.700512-3.731692 6.859487-10.994871 11.29682-23.404306 16.646563l-3.226257-6.255589c13.213538-4.539077 19.771076-9.583589 22.19323-17.657435H120.109961v-5.848616h21.691077c0-0.607179 0.105026-1.31282 0.105025-1.916717 0.098462-1.716513 0.098462-5.448205 0.196923-8.073846H133.730474c-1.916718 3.029333-3.938461 6.055384-6.153846 8.88123l-5.349744-4.036923c5.349743-6.455795 9.583589-14.526359 11.907282-20.479999z m524.596496 40.205127a6.859487 6.859487 0 1 1 0 13.718974 6.859487 6.859487 0 0 1 0-13.718974z m-297.147067 0a6.859487 6.859487 0 1 1-0.006565 13.718974 6.859487 6.859487 0 0 1 0.006565-13.718974z m116.575175-15.688205h-7.768615v26.633845h7.768615v-26.633845z m13.820718 0h-7.466667v26.633845h7.466667v-26.633845z m-290.25476-15.638974v36.217435h-31.77682v-36.217435h31.77682z m567.492905 6.761026h-26.834051v28.347076h26.834051V944.902567z m-203.185224-13.220102c10.994871 16.246153 28.248614 26.131691 43.382152 33.092922l-4.138667 7.56841c-20.174769-9.682051-34.100512-21.592615-42.975178-33.29641-9.281641 12.711384-24.818871 24.214974-42.975178 33.191384l-4.138666-7.565128c21.691076-9.885538 35.209845-20.883692 43.480614-32.991178z m-322.133323 0l6.659281 0.203487v6.564102h13.922461v5.037949h-13.922461v5.950358h13.115077v4.844308h-13.115077v5.953641h14.326154v5.142974h-14.326154v4.64082h-6.662564v-4.64082h-20.27323v-5.142974h20.276513v-5.953641h-15.835897v-4.844308h15.835897v-5.950358h-17.755897v-5.041231h17.755897v-6.761025z m39.04328-0.098462l6.455795 0.203487v6.662564h17.453948v5.037949h-17.453948v5.950358h15.638974v4.844308h-15.638974v5.953641H309.169237v5.142974h-19.774358v4.64082h-6.455795v-4.64082h-15.133538v-5.142974h15.130256v-5.953641h-13.919179v-4.844308h13.922461v-5.950358H268.110777v-5.041231h14.828307v-6.866051z m303.468298 30.870973v7.059692H538.28923v-7.059692h48.121434z m-131.561021-13.420307v19.068717H420.854157v-19.068717h33.995486z m-259.984402-4.132102H176.705652v22.800409h18.159589v-22.800409z m253.833838 9.885538h-21.687794v7.565128h21.687794v-7.565128z m11.904-18.563282v6.052103H414.096413v-6.052103h46.506666z m-104.011484-221.466249c1.493333 0 2.838974 0.899282 3.413333 2.281026l28.632614 69.17251c1.234051 2.983385 5.431795 3.052308 6.774154 0.121436l31.704614-69.415382a3.689026 3.689026 0 0 1 3.360821-2.15959h24.36923c2.688 0 4.476718 2.786461 3.354256 5.23159l-75.759587 165.215174c-0.600615 1.31282-1.913436 2.153026-3.357539 2.153025h-24.575999a3.692308 3.692308 0 0 1-3.347692-5.254564l22.843076-48.935383c0.439795-0.935385 0.466051-2.011897 0.075487-2.963692l-45.33169-110.349124a3.692308 3.692308 0 0 1 3.413333-5.097026z m150.275277-48.784409c2.034872 0 3.692308 1.654154 3.692308 3.692308v50.829127c0 3.068718 3.538051 4.798359 5.950358 2.898051a56.359383 56.359383 0 0 1 12.632615-7.591385c6.659282-2.865231 13.784615-4.299487 21.372718-4.299487 16.492307 0 30.509948 6.235897 42.043075 18.70441 11.542974 12.46523 17.31282 28.455384 17.31282 47.967178 0 18.815999-5.966769 34.556717-17.887179 47.215588-11.923692 12.662153-26.059486 18.99323-42.397537 18.99323-7.276307 0-14.053743-1.299692-20.325743-3.892512-4.266667-1.762461-8.510359-4.283077-12.734358-7.56841-2.428718-1.887179-5.966769-0.183795-5.966769 2.888205v1.627897c0 2.034872-1.654154 3.692308-3.692308 3.692308h-24.090256a3.692308 3.692308 0 0 1-3.692307-3.692308V669.669755c0-2.038154 1.654154-3.692308 3.692307-3.692308z m392.569423 0c2.041436 0 3.69559 1.650872 3.69559 3.692308v167.76861c0 2.038154-1.654154 3.692308-3.69559 3.692308h-24.319999a3.692308 3.692308 0 0 1-3.692308-3.692308v-1.614769c0-3.078564-3.541333-4.778667-5.973333-2.884923-4.20759 3.275487-8.425025 5.796102-12.649025 7.555282-6.226051 2.59282-12.973948 3.889231-20.243692 3.88923-16.321641 0-30.437743-6.327795-42.348306-18.989948-11.907282-12.662153-17.864205-28.399589-17.864204-47.215588 0-19.515076 5.763282-35.501948 17.286563-47.97046 11.523282-12.46523 25.52123-18.701128 41.997127-18.701128 7.581538 0 14.690461 1.434256 21.346461 4.299487a55.151588 55.151588 0 0 1 12.48164 7.522462 3.679179 3.679179 0 0 0 5.966769-2.884923v-50.773332c0-2.041436 1.654154-3.692308 3.692308-3.692308z m-687.655362 0.006564a6.662564 6.662564 0 0 1 6.662564 6.662564v55.433845a6.662564 6.662564 0 0 0 6.662563 6.656h43.703794a6.662564 6.662564 0 0 0 6.662564-6.659282v-55.433845a6.662564 6.662564 0 0 1 6.662564-6.659282h19.544614c3.679179 0 6.662564 2.980102 6.662564 6.662564v161.824816a6.662564 6.662564 0 0 1-6.662564 6.662564h-19.547896a6.662564 6.662564 0 0 1-6.662564-6.662564v-61.597537a6.662564 6.662564 0 0 0-6.659282-6.659282H225.102778a6.662564 6.662564 0 0 0-6.662563 6.662564v61.594255a6.662564 6.662564 0 0 1-6.659282 6.662564h-19.666051a6.662564 6.662564 0 0 1-6.659282-6.662564v-161.828098c0-3.675897 2.980102-6.659282 6.662564-6.659282z m474.978446 45.52205c3.058872 0 6.229333 0.603897 9.50482 1.811693 1.90359 0.699077 2.884923 2.83241 2.19241 4.739281l-7.34523 20.315897c-0.705641 1.95282-2.881641 2.868513-4.831179 2.133333-2.182564-0.827077-4.076308-1.237333-5.677949-1.237333-4.877128 0-9.002666 3.019487-12.373333 9.058461-3.364102 6.038974-5.047795 17.887179-5.047795 35.544615l0.114872 6.153846v47.412511c0 2.038154-1.654154 3.692308-3.692307 3.692308h-24.090256a3.69559 3.69559 0 0 1-3.69559-3.692308v-118.987483c0-2.034872 1.654154-3.692308 3.69559-3.692308h19.790769c2.041436 0 3.69559 1.654154 3.695589 3.692308 0 3.406769 4.135384 4.926359 6.455795 2.438564a29.699281 29.699281 0 0 1 5.274256-4.502975 28.307691 28.307691 0 0 1 16.029538-4.88041z m60.29128 1.371898c2.038154 0 3.689026 1.677128 3.689026 3.748102v120.756509c0 2.070974-1.650872 3.748102-3.692308 3.748103h-24.319999a3.721846 3.721846 0 0 1-3.69559-3.748103v-120.756509c0-2.067692 1.654154-3.748102 3.692308-3.748102z m-600.812288 0c2.034872 0 3.692308 1.677128 3.692307 3.74482v120.759791c0 2.074256-1.654154 3.751384-3.692307 3.751385h-24.32A3.721846 3.721846 0 0 1 118.2195 837.38257v-120.756509c0-2.067692 1.654154-3.748102 3.695589-3.748102z m397.65332 27.897435c-9.987282 0-18.271179 3.413333-24.851691 10.223589-6.583795 6.81682-9.87241 15.721025-9.87241 26.715897 0 11.224615 3.288615 20.306051 9.87241 27.237742 8.973128 9.452307 21.123281 12.455384 36.437332 9.019077 0.354462-0.078769 0.712205-0.210051 1.033846-0.380718 14.506666-7.673436 21.766563-19.597128 21.766563-35.76123 0-10.837333-3.252513-19.725128-9.757538-26.656819-6.505025-6.92841-14.713435-10.394256-24.62523-10.394256z m294.196504 0.003282c-9.803487 0-17.942974 3.465846-24.428307 10.394256-6.482051 6.931692-9.721436 15.819487-9.721436 26.656819 0 16.164102 7.227077 28.084512 21.687794 35.76123 0.328205 0.167385 0.682667 0.298667 1.040411 0.380718 15.261538 3.436308 27.365743 0.433231 36.30605-9.022359 6.557538-6.925128 9.839589-16.006564 9.839589-27.237742 0-10.994871-3.282051-19.899076-9.839589-26.712615-6.557538-6.813538-14.851282-10.220307-24.884512-10.220307z m-102.573946-75.050665c4.161641 0.098462 7.745641 1.673846 10.755282 4.71959 3.111385 3.150769 4.667077 6.971077 4.667077 11.454359 0 4.424205-1.542564 8.198564-4.621128 11.316512-3.085128 3.124513-6.770872 4.683487-11.060513 4.683487-4.411077 0-8.175589-1.591795-11.290256-4.772102-3.108102-3.18359-4.663795-7.046564-4.663795-11.592205 0-4.184615 1.417846-7.781743 4.250257-10.797948a16.026256 16.026256 0 0 1 11.963076-5.011693z m-602.400801 0c3.84 0.088615 7.154872 1.542564 9.924923 4.352 2.871795 2.911179 4.306051 6.43282 4.306051 10.571487 0 4.082872-1.417846 7.565128-4.263385 10.446769-2.845538 2.878359-6.249025 4.319179-10.203897 4.319179-4.069743 0-7.545436-1.467077-10.41723-4.404512S118.153859 684.514472 118.153859 680.313447c0-3.85641 1.306256-7.181128 3.918769-9.961025a14.802051 14.802051 0 0 1 11.04082-4.627693z" p-id="7126" fill="#ffffff"></path></svg>